<?xml version="1.0" encoding="UTF-8"?>
<svg xmlns="http://www.w3.org/2000/svg" xmlns:xlink="http://www.w3.org/1999/xlink" width="150px" height="31px" viewBox="0 0 152 31" version="1.1">
<g id="surface1">
<path style=" stroke:none;fill-rule:nonzero;fill:rgb(0%,0%,0%);fill-opacity:1;" d="M 101.074219 0 L 127.503906 0 L 127.503906 4.921875 L 117.007812 4.921875 L 117.007812 30.730469 L 111.761719 30.730469 L 111.761719 4.921875 L 101.074219 4.921875 Z M 57.480469 0 L 57.480469 4.921875 L 36.265625 4.921875 L 36.265625 12.828125 L 53.355469 12.828125 L 53.355469 17.707031 L 36.265625 17.707031 L 36.265625 25.847656 L 57.480469 25.847656 L 57.480469 30.730469 L 31.054688 30.730469 L 31.054688 0 L 57.558594 0 Z M 70.714844 0 L 63.847656 0 L 88.460938 30.765625 L 95.367188 30.765625 L 83.019531 15.382812 L 95.367188 0.0390625 L 88.460938 0.0390625 L 79.585938 11.121094 L 70.714844 0.0390625 Z M 77.773438 21.972656 L 74.300781 17.707031 L 63.847656 30.765625 L 70.714844 30.765625 Z M 77.773438 21.972656 "/>
<path style=" stroke:none;fill-rule:nonzero;fill:rgb(0%,0%,0%);fill-opacity:1;" d="M 31.25 30.730469 L 6.558594 0 L 0 0 L 0 30.730469 L 5.246094 30.730469 L 5.246094 6.585938 L 24.613281 30.730469 Z M 128.699219 30.574219 C 128.3125 30.574219 128.003906 30.417969 127.734375 30.1875 C 127.464844 29.953125 127.308594 29.566406 127.308594 29.179688 C 127.308594 28.792969 127.425781 28.480469 127.695312 28.210938 C 127.964844 27.9375 128.3125 27.824219 128.699219 27.824219 C 129.085938 27.824219 129.394531 27.9375 129.664062 28.210938 C 130.128906 28.636719 130.226562 29.335938 129.894531 29.875 C 129.648438 30.289062 129.214844 30.550781 128.738281 30.574219 Z M 137.648438 17.59375 L 139.964844 17.59375 L 139.964844 26.621094 C 139.964844 27.433594 139.808594 28.171875 139.460938 28.753906 C 139.113281 29.335938 138.605469 29.808594 137.996094 30.109375 C 137.378906 30.417969 136.644531 30.613281 135.796875 30.613281 C 135.023438 30.613281 134.371094 30.457031 133.753906 30.226562 C 133.136719 29.992188 132.671875 29.527344 132.324219 28.984375 C 131.976562 28.480469 131.785156 27.824219 131.785156 27.046875 L 134.097656 27.046875 C 134.136719 27.359375 134.214844 27.667969 134.371094 27.898438 C 134.523438 28.132812 134.753906 28.363281 134.988281 28.480469 C 135.257812 28.636719 135.566406 28.675781 135.914062 28.675781 C 136.296875 28.675781 136.605469 28.597656 136.839844 28.441406 C 137.109375 28.277344 137.328125 28.035156 137.457031 27.746094 C 137.570312 27.433594 137.648438 27.046875 137.648438 26.582031 Z M 149.570312 21.117188 C 149.523438 20.597656 149.238281 20.125 148.796875 19.839844 C 148.300781 19.53125 147.722656 19.382812 147.140625 19.414062 C 146.636719 19.414062 146.214844 19.492188 145.867188 19.609375 C 145.519531 19.761719 145.25 19.996094 145.09375 20.226562 C 144.734375 20.667969 144.6875 21.289062 144.980469 21.777344 C 145.09375 21.972656 145.25 22.125 145.480469 22.242188 L 146.175781 22.628906 L 146.945312 22.824219 L 148.179688 23.132812 C 148.683594 23.25 149.144531 23.40625 149.609375 23.597656 C 150.050781 23.769531 150.464844 24.007812 150.84375 24.296875 C 151.597656 24.910156 152.023438 25.839844 152 26.816406 C 152 27.589844 151.808594 28.25 151.421875 28.792969 C 150.996094 29.398438 150.40625 29.867188 149.722656 30.148438 C 149.03125 30.457031 148.140625 30.613281 147.101562 30.613281 C 146.097656 30.613281 145.210938 30.457031 144.476562 30.148438 C 143.707031 29.835938 143.164062 29.371094 142.742188 28.792969 C 142.3125 28.148438 142.082031 27.394531 142.085938 26.621094 L 144.398438 26.621094 C 144.429688 27.441406 144.96875 28.15625 145.75 28.402344 C 146.136719 28.558594 146.597656 28.636719 147.0625 28.636719 C 147.5625 28.636719 148.027344 28.558594 148.414062 28.402344 C 148.796875 28.25 149.105469 28.015625 149.339844 27.746094 C 149.539062 27.476562 149.648438 27.148438 149.648438 26.816406 C 149.648438 26.464844 149.570312 26.195312 149.375 25.960938 C 149.128906 25.75 148.855469 25.570312 148.566406 25.421875 L 147.332031 25.03125 L 145.867188 24.644531 C 144.785156 24.375 143.9375 23.984375 143.320312 23.40625 C 142.695312 22.847656 142.355469 22.035156 142.394531 21.195312 C 142.386719 20.496094 142.617188 19.8125 143.050781 19.257812 C 143.464844 18.660156 144.039062 18.1875 144.707031 17.902344 C 145.480469 17.59375 146.25 17.4375 147.175781 17.4375 C 148.066406 17.4375 148.875 17.59375 149.570312 17.902344 C 150.265625 18.210938 150.804688 18.675781 151.226562 19.21875 C 151.613281 19.761719 151.808594 20.382812 151.808594 21.15625 L 149.570312 21.15625 Z M 149.570312 21.117188 "/>
</g>
</svg>
