<?xml version="1.0" encoding="UTF-8"?>
<svg xmlns="http://www.w3.org/2000/svg" xmlns:xlink="http://www.w3.org/1999/xlink" width="100px" height="100px" viewBox="0 0 100 100" version="1.1">
<g id="surface1">
<path style=" stroke:none;fill-rule:nonzero;fill:rgb(0%,0%,0%);fill-opacity:1;" d="M 46.726562 0.0273438 C 46.511719 0.046875 45.824219 0.113281 45.210938 0.164062 C 31.007812 1.445312 17.703125 9.105469 9.277344 20.882812 C 4.585938 27.433594 1.582031 34.859375 0.449219 42.726562 C 0.0507812 45.476562 0 46.285156 0 50.011719 C 0 53.734375 0.0507812 54.542969 0.449219 57.292969 C 3.167969 76.066406 16.53125 91.839844 34.652344 97.6875 C 37.898438 98.730469 41.320312 99.445312 45.210938 99.875 C 46.726562 100.042969 53.273438 100.042969 54.789062 99.875 C 61.503906 99.132812 67.195312 97.472656 72.804688 94.605469 C 73.664062 94.167969 73.832031 94.050781 73.714844 93.953125 C 73.636719 93.894531 69.96875 88.976562 65.570312 83.035156 L 57.574219 72.234375 L 47.554688 57.410156 C 42.042969 49.257812 37.507812 42.589844 37.46875 42.589844 C 37.429688 42.582031 37.390625 49.167969 37.371094 57.214844 C 37.339844 71.296875 37.332031 71.863281 37.15625 72.195312 C 36.902344 72.675781 36.707031 72.871094 36.296875 73.085938 C 35.980469 73.242188 35.707031 73.269531 34.234375 73.269531 L 32.542969 73.269531 L 32.09375 72.988281 C 31.796875 72.800781 31.582031 72.558594 31.4375 72.273438 L 31.230469 71.835938 L 31.25 52.238281 L 31.28125 32.632812 L 31.582031 32.25 C 31.738281 32.046875 32.074219 31.78125 32.308594 31.65625 C 32.707031 31.460938 32.863281 31.441406 34.554688 31.441406 C 36.550781 31.441406 36.882812 31.519531 37.398438 32.085938 C 37.546875 32.242188 42.972656 40.410156 49.460938 50.253906 C 55.953125 60.097656 64.828125 73.535156 69.1875 80.132812 L 77.105469 92.125 L 77.507812 91.859375 C 81.054688 89.554688 84.808594 86.269531 87.78125 82.847656 C 94.105469 75.585938 98.183594 66.734375 99.550781 57.292969 C 99.949219 54.542969 100 53.734375 100 50.011719 C 100 46.285156 99.949219 45.476562 99.550781 42.726562 C 96.832031 23.953125 83.46875 8.179688 65.347656 2.332031 C 62.152344 1.296875 58.75 0.585938 54.9375 0.152344 C 53.996094 0.0546875 47.535156 -0.0507812 46.726562 0.0273438 Z M 67.195312 30.265625 C 67.664062 30.5 68.046875 30.949219 68.183594 31.421875 C 68.261719 31.675781 68.28125 37.109375 68.261719 49.355469 L 68.230469 66.929688 L 65.132812 62.179688 L 62.023438 57.429688 L 62.023438 44.652344 C 62.023438 36.394531 62.0625 31.753906 62.121094 31.527344 C 62.277344 30.980469 62.621094 30.550781 63.089844 30.296875 C 63.488281 30.089844 63.636719 30.070312 65.171875 30.070312 C 66.617188 30.070312 66.871094 30.089844 67.195312 30.265625 Z M 67.195312 30.265625 "/>
</g>
</svg>
